<svg id="Flat" enable-background="new 0 0 512 512" viewBox="0 0 512 512" xmlns="http://www.w3.org/2000/svg"><path d="m194.483 288.56 6.16 31.44-8 8h-32-32l-8-8 5.92-31.6c7.144-12.734 12.16-.4 18.48-.4h31.2c6.24 0 12.4-5.365 18.24.56z" fill="#ffd5c2"/><path d="m247.923 176.24c-1.44-4.8-5.92-8.24-11.28-8.24-6.64 0-12 5.36-12 12v-28c-56 8-88-40-88-40-8 24-40 40-40 40v28c0-6.64-5.36-12-12-12-5.36 0-9.84 3.44-11.28 8.24-.48 1.2-.72 2.48-.72 3.76v40c0 6.64 5.36 12 12 12s12-5.36 12-12v8.96l.56 2.96 27.44-5.52c8-1.6 16.08-2.4 24.24-2.4h23.52c8.16 0 16.24.8 24.24 2.4l27.44 5.52.56-2.96v-8.96c0 6.64 5.36 12 12 12s12-5.36 12-12v-40c0-1.28-.24-2.56-.72-3.76z" fill="#ffd5c2"/><g fill="#212647"><path d="m264.643 288c0-24-8-40-8-40 0-24-8-48-8-48v12c0 6.64-5.36 12-12 12s-12-5.36-12-12v8.96l-.56 2.96-27.44-5.52c-8-1.6-16.08-2.4-24.24-2.4h-23.52c-8.16 0-16.24.8-24.24 2.4l-27.44 5.52-.56-2.96v-8.96c0 6.64-5.36 12-12 12s-12-5.36-12-12v-12s-8 24-8 48c0 0-8 16-8 40 0 0-6.16 18.56-7.68 39.36 10.18 14.793 20.32 8.64 31.68 8.64l40-16 5.92-31.6c5.76 4.4 12.16 7.6 18.48 7.6h31.2c6.24 0 12.56-3.12 18.24-7.44l6.16 31.44 40 16c11.36 0 20.487 6.153 31.68-8.64-1.52-20.8-7.68-39.36-7.68-39.36z"/><path d="m73.363 184.24c1.44-4.8 5.92-8.24 11.28-8.24 6.64 0 12 5.36 12 12v-28s32-16 40-40c0 0 32 48 88 40v28c0-6.64 5.36-12 12-12 5.36 0 9.84 3.44 11.28 8.24l.72-.24c16-38.72 0-80 0-80 8-30.96-48-40-48-40-24-30.96-80 3.76-80 3.76-56 0-56 46.48-56 46.48-16 31.04 8 69.76 8 69.76z"/></g><path d="m488.723 386c14.88 11.36 20 29.6 11.44 40.8-8.56 11.12-27.44 10.88-42.32-.48-6.48-4.96-11.12-11.28-13.52-17.68-3.2-8.24-2.72-16.8 2.08-23.04.16-.16.24-.32.4-.48 8.72-10.64 27.28-10.32 41.92.88z" fill="#6871d8"/><g fill="#d9d8ef"><path d="m418.403 370 10 11.52 18.4 3.6c-.16.16-.24.32-.4.48-4.8 6.24-5.28 14.8-2.08 23.04l-24.56-6.24-6.32-4.16-17.68-11.84-5.84-4.48-80.32-62.16c-10.32-7.92-17.28-19.2-19.84-31.92l-.96-5.12c-1.12-5.28 5.04-9.12 9.28-5.84l94.48 71.12 16 12.08c2.08 1.52 4.08 3.36 5.92 5.36z"/><path d="m422.483 232.72c7.2 10.8 10.24 23.68 8.56 36.64l-12.64 100.64-3.92-4.56c-1.84-2-3.84-3.84-5.92-5.36l-16-12.08 16.24-117.12c.72-5.36 7.76-6.96 10.72-2.48z"/><path d="m395.763 386.4 17.68 11.84-1.52 7.44-12.88 21.76c-3.68-8.08-10.08-13.68-17.84-14.72-.24 0-.4-.08-.64-.08l10.48-15.6-1.12-15.12z"/></g><path d="m399.043 427.44c2.8 6.32 4 14 2.96 22.08-2.48 18.56-15.68 32.16-29.6 30.32s-23.2-18.32-20.8-36.88c2.4-18.24 15.28-31.68 28.96-30.32.24 0 .4.08.64.08 7.76 1.04 14.16 6.64 17.84 14.72z" fill="#6871d8"/><path d="m481.586 395.336c7.995 6.104 10.746 15.905 6.147 21.923-4.599 5.975-14.744 5.846-22.74-.258-3.482-2.665-5.975-6.061-7.265-9.5-1.719-4.428-1.462-9.027 1.118-12.38.086-.086.129-.172.215-.258 4.686-5.717 14.659-5.545 22.525.473z" fill="#d9d8ef"/><path d="m388.751 436.155c1.505 3.396 2.149 7.523 1.59 11.864-1.333 9.973-8.425 17.28-15.905 16.292-7.48-.989-12.466-9.844-11.176-19.816 1.29-9.801 8.21-17.022 15.561-16.292.129 0 .215.043.344.043 4.17.558 7.609 3.567 9.586 7.909z" fill="#d9d8ef"/><path d="m160.643 320h32 8 40c11.36 0 22.16 2.64 31.68 7.36 23.92 11.68 40.32 36.24 40.32 64.64v112h-304v-112c0-28.4 16.4-52.96 40.32-64.64 9.52-4.72 20.32-7.36 31.68-7.36h40 8z" fill="#d9d8ef"/><g><path d="m144.639 191.555c-.762 0-1.531-.219-2.215-.672-9.664-6.43-19.461-.07-19.563 0-1.848 1.219-4.328.727-5.547-1.109-1.227-1.836-.73-4.32 1.109-5.547.574-.398 14.371-9.367 28.438 0 1.84 1.227 2.336 3.711 1.109 5.547-.768 1.156-2.038 1.781-3.331 1.781z" fill="#212647"/></g><g><path d="m200.639 191.555c-.762 0-1.531-.219-2.215-.672-9.668-6.43-19.461-.07-19.562 0-1.852 1.219-4.324.727-5.547-1.109-1.227-1.836-.73-4.32 1.109-5.547.574-.398 14.375-9.367 28.438 0 1.84 1.227 2.336 3.711 1.109 5.547-.769 1.156-2.039 1.781-3.332 1.781z" fill="#212647"/></g><g><path d="m160.057 249.156c-5.273 0-11.219-1-17.203-3.992-1.977-.992-2.777-3.391-1.789-5.367.988-1.969 3.395-2.781 5.367-1.789 14.051 7.023 28.285.07 28.422 0 1.977-.992 4.375-.18 5.367 1.789.988 1.977.188 4.375-1.789 5.367-.48.242-8.156 3.992-18.375 3.992z" fill="#fcad95"/></g><path d="m474.85 32.445-28.441-17.336c-.252-.155-.531-.2-.8-.293l-5.365-3.296c-11.36-6.88-26.16-3.36-33.04 8l-97.92 160.72c-3.44 5.68-1.68 13.04 4 16.56l5.6 3.36c5.68 3.44 13.04 1.68 16.48-4l34.933-57.327 25.87 15.769c.648.398 1.367.586 2.078.586 1.348 0 2.664-.68 3.418-1.922 1.152-1.883.555-4.344-1.332-5.492l-25.872-15.77 3.676-6.032c.161.138.275.313.462.427l28.445 17.328c.652.398 1.367.586 2.078.586 1.348 0 2.668-.68 3.422-1.922 1.148-1.883.551-4.344-1.336-5.492l-28.446-17.329c-.188-.114-.397-.135-.594-.216l4.047-6.63 25.867 15.76c.652.398 1.367.586 2.078.586 1.348 0 2.668-.68 3.418-1.922 1.152-1.883.555-4.344-1.332-5.492l-25.864-15.758 3.682-6.032c.157.133.267.304.448.415l28.441 17.328c.652.398 1.367.586 2.078.586 1.348 0 2.668-.68 3.418-1.922 1.152-1.883.555-4.344-1.332-5.492l-28.441-17.328c-.18-.11-.381-.129-.57-.208l4.034-6.629 25.853 15.751c.652.398 1.367.586 2.078.586 1.348 0 2.668-.68 3.418-1.922 1.152-1.883.555-4.344-1.332-5.492l-25.859-15.755 3.671-6.032c.159.135.27.308.454.419l28.441 17.329c.652.398 1.367.586 2.078.586 1.348 0 2.668-.68 3.418-1.922 1.152-1.883.555-4.344-1.332-5.492l-28.441-17.328c-.186-.114-.392-.134-.587-.214l.005-.009 4.039-6.617 25.863 15.755c.652.398 1.367.586 2.078.586 1.348 0 2.668-.68 3.422-1.922 1.148-1.883.551-4.344-1.336-5.492l-25.86-15.753 3.682-6.032c.156.131.264.3.443.41l28.441 17.328c.652.398 1.367.586 2.078.586 1.348 0 2.668-.68 3.418-1.922 1.152-1.883.555-4.344-1.332-5.492l-28.441-17.328c-.178-.109-.377-.127-.564-.206l4.042-6.622 25.838 15.742c.652.398 1.367.586 2.078.586 1.348 0 2.668-.68 3.418-1.922 1.152-1.883.555-4.344-1.332-5.492l-25.835-15.74 3.678-6.025c.149.124.251.287.422.391l28.441 17.336c.648.398 1.367.586 2.078.586 1.348 0 2.664-.68 3.418-1.922 1.154-1.885.557-4.346-1.33-5.495z" fill="#6871d8"/><g><path d="m132.643 320c0 .32-.08.64-.16.96l-8 32c-.4 1.84-2.08 3.04-3.84 3.04-.32 0-.64 0-.96-.08-2.16-.56-3.44-2.72-2.88-4.88l7.76-31.04z" fill="#6871d8"/></g><g><path d="m164.643 320v32c0 2.24-1.76 4-4 4s-4-1.76-4-4v-32z" fill="#6871d8"/></g><g><path d="m201.603 355.92c-.32.08-.64.08-.96.08-1.76 0-3.44-1.2-3.84-3.04l-8-32c-.08-.32-.16-.64-.16-.96h8.08l7.76 31.04c.56 2.16-.72 4.32-2.88 4.88z" fill="#6871d8"/></g><g><path d="m418.393 371.008c-.277 0-.559-.117-.754-.344l-3.941-4.531c-1.82-2.055-3.75-3.836-5.734-5.289l-16-12.047c-.441-.328-.531-.961-.195-1.398.328-.438.961-.539 1.398-.195l15.988 12.039c2.09 1.523 4.125 3.398 6.047 5.57l3.945 4.539c.363.414.32 1.047-.098 1.414-.187.164-.422.242-.656.242z" fill="#6871d8"/></g><g><path d="m413.456 399.219c-.191 0-.387-.055-.555-.172l-17.688-11.812-5.887-4.547c-.434-.336-.516-.961-.176-1.398.332-.445.961-.516 1.402-.18l5.828 4.508 17.629 11.773c.461.305.582.922.277 1.383-.19.288-.51.445-.83.445z" fill="#6871d8"/></g><circle cx="403.606" cy="374.519" fill="#6871d8" r="10.963"/></svg>