<svg xmlns="http://www.w3.org/2000/svg" version="1.1" xmlns:xlink="http://www.w3.org/1999/xlink" width="512" height="512" x="0" y="0" viewBox="0 0 43.349 43.349" style="enable-background:new 0 0 512 512" xml:space="preserve" fill-rule="evenodd" class=""><g><path d="M33.871 6.945a5.732 5.732 0 0 0 .074-.393c.141-.879.365-3.176-.622-5.454-1.17.587-4.817 1.796-12.176-.662C20.92.378 10.243-2.334 9.4 6.513l3.71 4.4c.766.319 6.433 2.59 11.65 2.033v-.001a.417.417 0 0 1 .095 0c.366.014 3.815.096 6.374-1.741a.417.417 0 0 1 .05-.037c1.22-.892 2.23-2.226 2.593-4.222zM8.059 22.607l-.184.028-.185-.06c-.545-.175-.608-.67-.654-1.137-.044-.445-.078-.893-.118-1.338a130.42 130.42 0 0 0-.677-5.947 17.863 17.863 0 0 1-.108-1.04c-.1-1.317-.09-2.815.22-4.104.261-1.091.801-2.203 1.868-2.618l.318.39.405.499.009-.008 3.652 4.33.165.068-.45.126c-.356.1-.704.24-1.021.431-.423.254-.78.588-1.035 1.014-1.014 1.694-1.338 5.13-1.536 7.109-.028.274-.004.529.045.8.081.45.168.885-.237 1.242a.784.784 0 0 1-.332.185l-.076.023z" fill="#ffffff" opacity="1" data-original="#000000" class=""></path><path d="m35.27 22.609-.076-.007-.085-.026a.784.784 0 0 1-.328-.184c-.405-.356-.318-.792-.237-1.243.049-.27.073-.525.046-.8-.199-1.979-.523-5.414-1.536-7.108-.18-.3-.413-.558-.687-.774a3.428 3.428 0 0 0-.475-.312l-.316-.173a7.168 7.168 0 0 0 .166-.125c1.418-.952 2.313-2.355 2.761-3.954l.306-1.467.02-.134.093.029c1.199.366 1.77 1.543 2.043 2.677.31 1.29.319 2.786.219 4.103-.026.348-.061.696-.108 1.042a130.54 130.54 0 0 0-.676 5.94c-.04.446-.074.894-.118 1.34-.045.453-.1.93-.61 1.127l-.2.077z" fill="#ffffff" opacity="1" data-original="#000000" class=""></path><path d="M36.757 31.79c.62-2.645.66-5.297.346-7.423-.3-2.034-.901-3.55-1.603-4.05-1.297.509-2.56 2.018-3.421 3.732-.9 1.79-1.347 3.773-.925 5.048l.003.01a.414.414 0 0 1-.27.524.428.428 0 0 1-.367-.05c-4.265-2.49-6.57-3.734-8.808-3.734-2.243 0-4.551 1.249-8.83 3.745v.001a.426.426 0 0 1-.578-.145.409.409 0 0 1-.03-.362c.413-1.274-.058-3.25-.978-5.034-.885-1.715-2.173-3.226-3.474-3.735-.693.494-1.284 1.988-1.579 3.995-.312 2.12-.267 4.774.357 7.424.622 2.638 1.817 5.268 3.807 7.354 2.43 2.549 6.06 4.293 11.302 4.259v-.002c.013 0 .027 0 .04.002 5.202.027 8.806-1.702 11.219-4.229 1.983-2.076 3.173-4.698 3.79-7.33zm-15.03-.025h-3.433c-.183 0-.347-.028-.479-.079a.53.53 0 0 1-.236-.155l-.007-.01h.001v-.001l-.013-.019c.007-.02.035-.05.085-.086l.028-.018 1.267-.817 2.166-1.398a.892.892 0 0 1 .261-.112c.105-.027.226-.041.36-.041s.255.014.36.04a.89.89 0 0 1 .26.113l2.167 1.398 1.267.817.028.018c.052.038.08.068.086.088 0 .002-.005.005-.014.018l-.01.015a.541.541 0 0 1-.232.15c-.132.05-.296.078-.48.078z" fill="#ffffff" opacity="1" data-original="#000000" class=""></path></g></svg>