<svg id="Kids_Hair_Cut" viewBox="0 0 64 64" xmlns="http://www.w3.org/2000/svg"><path d="m58 34.68518066v-3.68518066c0-5.60644531-2.18554688-10.87890625-6.15332031-14.84667969-2.07177734-2.07269287-4.58764648-3.69696045-7.31384277-4.74395752.29815674-1.68969727.46716309-3.41259766.46716309-5.15936279v-1.25c0-.40429688-.24316406-.76953125-.6171875-.92382812-.375-.15625-.80371094-.06933594-1.08984375.21679688l-1.62011719 1.62011719c-1.61036 1.61035156-3.50683594 2.87695312-5.63769531 3.76367188-2.109375.87792969-4.34863281 1.32324219-6.65527344 1.32324219-.48925781 0-.97753906.02050781-1.46679688.06347656-.54980469.04785156-.95703125.53222656-.90917969 1.08300781.046875.54980469.53222656.95703125 1.08300781.90917969.43066406-.03710938.86230469-.05566406 1.29296875-.05566406 2.57128906 0 5.06933594-.49707031 7.42480469-1.47753906 2.32226562-.96679688 4.39746094-2.34082031 6.16992188-4.08398438-.40820312 9.515625-5.69824219 18.25097656-14.01074219 23.00292969-2.03710938 1.16210938-4.21386719 2.0546875-6.47070312 2.65136719-2.26171875.60253906-4.59375.90722656-6.93359375.90722656h-3.55957031v-3.62011719c0-1.47167969.18457031-2.93164062.54785156-4.33984375.13867188-.53417969-.18261719-1.08007812-.71777344-1.21777344-.53320312-.14453125-1.08007812.18261719-1.21777344.71777344-.40625 1.5703125-.61230469 3.19921875-.61230469 4.83984375v4.30529785c-2.36065674 1.12640381-4 3.52990723-4 6.31481934 0 3.859375 3.140625 7 7 7h2.26055908c1.44567871 9.05267334 9.28601074 16 18.73944092 16s17.29376221-6.94732666 18.73944092-16h2.26055908c3.859375 0 7-3.140625 7-7 0-2.78491211-1.63934326-5.18841553-4-6.31481934zm-7.56738281-17.11779785c3.58984375 3.58984375 5.56738281 8.36035156 5.56738281 13.43261719v3h-2.05957031c-6.50769043 0-12.38500977-4.00946045-14.79949951-10.02233887 2.32891846-3.15808105 4.02539062-6.75622559 4.97424316-10.5914917 2.35113525.94958496 4.51837158 2.38128662 6.31744385 4.18121338zm-35.43261719 28.43261719h-2c-2.75683594 0-5-2.24316406-5-5s2.24316406-5 5-5h2zm19 16c-9.37402344 0-17-7.62597656-17-17v-9.04693604c2.02807617-.10119629 4.0425415-.40466309 6.00585938-.92669678 2.42382812-.64160156 4.76171875-1.59960938 6.95019531-2.84863281 2.98266602-1.70507812 5.59606934-3.89343262 7.777771-6.42663574 2.52722168 5.30255127 7.51879883 9.03668213 13.26617432 9.99890137v9.25c0 9.37402344-7.62597656 17-17 17zm21-16h-2v-10h2c2.75683594 0 5 2.24316406 5 5s-2.24316406 5-5 5z"/><path d="m26 12c0-6.6171875-5.3828125-12-12-12s-12 5.3828125-12 12 5.3828125 12 12 12 12-5.3828125 12-12zm-22 0c0-5.51367188 4.48632812-10 10-10s10 4.48632812 10 10-4.48632812 10-10 10-10-4.48632812-10-10z"/><path d="m15.00097656 17v-4h4c1.65429688 0 3-1.34570312 3-3s-1.34570312-3-3-3-3 1.34570312-3 3c0 .35235596.07226562.68566895.18432617 1h-1.18432617v-4c0-.55273438-.44726562-1-1-1s-1 .44726562-1 1v4h-4.00097656c-.55273438 0-1 .44726562-1 1s.44726562 1 1 1h4.00097656v1.18426514c-.31433105-.11206055-.64764404-.18426514-1-.18426514-1.65429688 0-3 1.34570312-3 3s1.34570312 3 3 3 3-1.34570312 3-3zm3-7c0-.55175781.44824219-1 1-1s1 .44824219 1 1-.44824219 1-1 1-1-.44824219-1-1zm-6 8c-.55175781 0-1-.44824219-1-1s.44824219-1 1-1 1 .44824219 1 1-.44824219 1-1 1z"/><path d="m38.375 49.21875c-2.57617188 2.0625-6.17382812 2.0625-8.75 0-.43261719-.34570312-1.06054688-.27441406-1.40625.15625-.34472656.43164062-.27441406 1.06054688.15625 1.40625 1.65625 1.32421875 3.640625 1.98730469 5.625 1.98730469s3.96875-.66308594 5.625-1.98730469c.43066406-.34570312.50097656-.97460938.15625-1.40625-.34570312-.43066406-.97363281-.50195312-1.40625-.15625z"/><path d="m29 43c.25585938 0 .51171875-.09765625.70703125-.29296875.390625-.390625.390625-1.0234375 0-1.4140625-1.4921875-1.4921875-3.921875-1.4921875-5.4140625 0-.390625.390625-.390625 1.0234375 0 1.4140625s1.0234375.390625 1.4140625 0c.71289062-.71289062 1.87304688-.71289062 2.5859375 0 .1953125.1953125.45117188.29296875.70703125.29296875z"/><path d="m38.29296875 41.29296875c-.390625.390625-.390625 1.0234375 0 1.4140625s1.0234375.390625 1.4140625 0c.71289062-.71289062 1.87304688-.71289062 2.5859375 0 .1953125.1953125.45117188.29296875.70703125.29296875s.51171875-.09765625.70703125-.29296875c.390625-.390625.390625-1.0234375 0-1.4140625-1.4921875-1.4921875-3.921875-1.4921875-5.4140625 0z"/></svg>