<svg id="Layer_1" viewBox="0 0 247.88 294" xmlns="http://www.w3.org/2000/svg" data-name="Layer 1"><g transform="translate(-26.06 -3)"><path d="m254.73 133.89c-1.87-2.13-3.33-3.79-4-4.65-3.6-4.41-3.79-14.85-.38-20.68 2.14-3.66-11.19-33-20.09-50.62-8.34-20.65-33-36.6-64.5-41.7a128.41 128.41 0 0 0 -20.45-1.63c-24.85 0-52.19 7.21-69.63 27.7-38.38 45.07-21.89 92.06-21.72 92.53a1.16 1.16 0 0 1 0 .14c1.54 7.6 6.09 19.13 11.37 32.48 5.82 14.74 12.42 31.44 16.05 46 4.85 19.41-2.17 40.53-6.8 51.38-2.09 4.91 1.21 9.38 5 11.92 30.34 20.35 68.67 20.24 102.5 20.24a7.61 7.61 0 0 0 5.95-2.67 5.78 5.78 0 0 0 1.09-5 1 1 0 0 1 0-.31c2.29-22.48 13.55-31.72 14-32.1a1 1 0 0 1 .44-.19c.14 0 14-2.32 36.52-5 12.17-1.46 16.82-9.41 18.51-14 2.7-7.37 1.5-15.56-1.31-18.59-2.47-2.66-3.63-5.17-3.44-7.46a5.13 5.13 0 0 1 1.73-3.51l.18-.11c7.74-3.67 3.38-13.83 3.19-14.26a1 1 0 0 1 .21-1.07 9 9 0 0 0 3.18-7c-.27-5.93-6.7-11.09-6.76-11.15a.95.95 0 0 1 0-1.46c2.71-2.32 6-4.62 9.17-6.84 4.31-3 8.77-6.13 9.23-7.75.14-2.53-13.97-18.6-19.24-24.64z" fill="#e5b19c"/><path d="m127.34 127.66-.12-.07a.9.9 0 0 0 .12.07z" fill="#dd8d57"/><path d="m143.3 179.85c-.31-2.84-2.89-5.68-5.92-7.56l-3.38-10.74c-1.44-7 .19-15 .19-15-.93-14.63-7-18.77-7.84-19.3a.9.9 0 0 1 -.12-.07c-.06-.05-6-5.29-13.62-3-13 4-17.75 13.15-14.51 28 2.85 13 14.55 27.77 26.63 33.54 5.17 2.47 9.7 2.88 13.08 1.19 3.96-1.91 5.79-4.31 5.49-7.06z" fill="#efbba8"/><path d="m101.46 148.31s-.34-21.79 18.78-16.11c0 0 16 7.34 8 27.48 0 0-1.7 3.53 7.92 9.82l1.93 3.25s-8-2.43-16.4-5.61-12.16-4.85-8.37-12.66 13.5-5.69 10.42-11.84-15.88-12.1-22.28 5.67z" fill="#d19484"/><path d="m169.41 50.34c-.37 0-6.93-2.53-7.3-2.53-61.14 0-78.85 26.34-88.72 44.85-9 16.82-.42 48.66 1.26 57.49 7.26-33.15 36.54-56.33 56.18-60.15 24-4.65 48.45-1.38 55.16-.31z" fill="#724830"/><path d="m237.35 209.19.59-5.07c-5.78 2.37-26.25 9.91-37 2.58s-16.36-21.63-17.73-25.46a48.64 48.64 0 0 0 -29 36.6c.38 2.08 4.27 22.86 9.43 30.75 5 7.65 25.51 21.54 29.63 23.14a26 26 0 0 1 10.65-12.52 1 1 0 0 1 .43-.19c.14 0 14-2.32 36.52-5 15.77-1.89 19.75-15 19.23-24.25-2.31 1.28-6.16 6.18-8.49 6.56-3.79.62-11.19-8.64-13.36-12.26-1.25-2.18-1.59-7.18-.9-14.88z" fill="#563621"/><path d="m75.51 147.35c-.18-.66-8-30.16 3.87-52.4 10.23-19.18 29.19-38.8 92.77-38.38a91.44 91.44 0 0 0 29.75-3.67c15.12-4.51 19.21-6.8 20.25-7.82.35-1.64 2.22-11.85-4.73-16.3a1 1 0 0 1 -.42-1c0-.06 1.18-5.78-1.31-8.89a5.77 5.77 0 0 0 -4.73-2c-5.32-.09-7.4-2.64-9.42-5.11-1.82-2.22-3.53-4.33-7.77-5-8.62-1.32-11 2.33-11 2.37a1 1 0 0 1 -1.77-.15c-.12-.32-3-7.76-10.86-5.55a114.48 114.48 0 0 1 -16.83 3.35.95.95 0 0 1 -1-.86s-.58-3.28-8.88-2.91c-8.74.38-11.45 5.81-11.56 6a.95.95 0 0 1 -1.64.13c-.06-.08-5.51-7.94-10.11-5.8-3.77 1.74-5.73 6.16-6.4 8a.95.95 0 0 1 -1.83-.46 1.12 1.12 0 0 0 -.29-1.08c-.39-.37-1.8-1.14-6.58-.23-9.88 1.88-11.25 6.52-11.26 6.56a1 1 0 0 1 -1.63.39c-.05-.06-5.31-5.95-10.9-3.42a3.5 3.5 0 0 0 -2.08 2.28c-.81 2.85 1.51 7.23 2.48 8.67a.95.95 0 0 1 -1.33 1.3c-.08-.06-8.28-5.74-12.08-2.24s-.07 7.79.08 8a.95.95 0 0 1 -.9 1.54c-.08 0-8.32-1.48-12.49 1.53a5.37 5.37 0 0 0 -2.24 3.8c-1.11 8.12-.12 10.23-.11 10.25a1 1 0 0 1 0 .86 1 1 0 0 1 -.67.53c-4.12.77-10.79 3.05-11.19 5.89-.53 3.84 3.87 6.11 3.91 6.13a1 1 0 0 1 .49 1.09 1 1 0 0 1 -1 .7c-.1.01-11.1-.45-11.59 4.84s4.29 5.85 4.84 5.91a.95.95 0 0 1 .12 1.87c-.41.1-10 2.43-8.8 9.67.5 3.11 1.4 4 1.9 4.32a1.54 1.54 0 0 0 1.46 0 .95.95 0 0 1 .87 1.67c-2.26 1.48-5.83 4.8-4.41 10.34 1.83 7.16 4.36 7.5 4.39 7.5a.92.92 0 0 1 .89.69 1 1 0 0 1 -.44 1.06c-.05 0-5.48 3.39-6.15 7.81a6.78 6.78 0 0 0 1.95 5.58 1 1 0 0 1 0 1.23s-3.92 4.89-2.92 10.4c.66 3.61 3.25 6.76 7.72 9.36a.95.95 0 0 1 .13 1.55c-1.06.89-3.79 3.71-3.66 6.06a3.25 3.25 0 0 0 1.69 2.53l5.69 3.79a.95.95 0 0 1 .22 1.37c0 .05-4.13 5.23-2.45 9.39 1.15 2.86 4.79 4.69 10.81 5.46a.95.95 0 0 1 .53 1.63s-2.68 2.56-2.09 5.31c.48 2.2 3 4.14 7.3 5.61a1 1 0 0 1 .6 1.18 12.39 12.39 0 0 0 .8 8.7c1.46 2.66 4.15 4.55 8 5.6a1 1 0 0 1 .7.86c0 .08.53 7.92 5.07 11.71a9.25 9.25 0 0 0 7.3 2l7.26.09a1.89 1.89 0 0 0 .65-.85c1-2.09 1.59-8.21-5.06-25.77-6.09-16.09-4-24.19-2.33-30.7 1.15-4.46 2.14-8.32.42-13.85z" fill="#563621"/><path d="m255.57 174.52c-2.3 1.64-11.14 11.75-13.14 15.34s-2.9 10.49-2.21 11.75a2.93 2.93 0 0 0 .71-.57c.49-.49 1-1.06 1.63-1.67 4.37-4.52 11.59-12 20.34-13.81 0-6.98-5.9-10.21-7.33-11.04z" fill="#563621"/><g fill="#7c4e35"><path d="m172.25 35.75s.95-9.44 9.48-9.44 9.95 9.44 9.95 9.44-10.9-6.07-19.43 0z"/><path d="m152.39 21.32s.95-9.44 9.48-9.44 9.95 9.44 9.95 9.44-10.9-6.06-19.43 0z"/><path d="m147.2 35.37s.68-6.81 6.84-6.81 7.18 6.81 7.18 6.81-7.87-4.37-14.02 0z"/><path d="m127.23 20s.68-6.81 6.84-6.81 7.17 6.81 7.17 6.81-7.86-4.37-14.01 0z"/><path d="m111 36s-.51-6.82 5.55-7.89 8.25 5.46 8.25 5.46-8.47-2.94-13.8 2.43z"/><path d="m93 29.81s-1.15-6.75 4.78-8.38 8.73 4.66 8.73 4.66-8.71-2.09-13.51 3.72z"/><path d="m189.78 29.95s.95-9.44 9.48-9.44 9.95 9.44 9.95 9.44-10.9-6.07-19.43 0z"/></g></g></svg>