<svg height="512" viewBox="0 0 64 64" width="512" xmlns="http://www.w3.org/2000/svg"><g id="_4-washings_hands" data-name="4-washings hands"><path d="m40 13h12v4h-12z" fill="#808285"/><path d="m50 13v-6h14v-6h-22v12z" fill="#d1d3d4"/><path d="m48 5v8h2v-6h14v-2z" fill="#808285"/><path d="m49 25.99831a3 3 0 1 1 -6 0c0-1.65685 3-5 3-5s3 3.34315 3 5z" fill="#6ee1ef"/><g fill="#f1f2f2"><circle cx="22" cy="21" r="2"/><circle cx="32" cy="17" r="3"/><circle cx="55" cy="55" r="3"/></g><path d="m38.64 51.7383c-1 1.73-3.6.23-3.6.23l-2.43-1.4c.55.36 2.28 1.66 1.43 3.13-1 1.73-3.6.23-3.6.23l-5.03-2.9c.55.36005 2.29 1.66 1.44 3.14-1 1.73-3.6.23-3.6.23l-11.26-6.5-3.2-6.47-8.79-4.5v-17.93l15.79 10.31 9.07-1.7 10.39 6s-2.87 2.97-4.6 1.97l-3.46-2a1.99825 1.99825 0 1 0 -2 3.46l11.25 6.5s2.6 1.5 1.6 3.23c-.87 1.51-2.96.56-3.48.3l2.48 1.43s2.6 1.50001 1.6 3.24z" fill="#efb175"/><path d="m45 36.99831a6.01344 6.01344 0 0 0 -1.00458.0907c.00037-.03052.00458-.06006.00458-.0907a7.99533 7.99533 0 0 0 -14.91815-4.00464 6.85636 6.85636 0 0 0 -3.58185-.99536 6.265 6.265 0 0 0 -6.5 6 6.03063 6.03063 0 0 0 4.14282 5.58692 7.0007 7.0007 0 0 0 5.97974 8.35229 3.9745 3.9745 0 0 0 6.858 1.7049 5.97772 5.97772 0 0 0 7.94492-4.74542 5.998 5.998 0 1 0 1.07452-11.89869z" fill="#f1f2f2"/><path d="m38.64 59.7383c-1 1.73-3.6.23-3.6.23l-2.43-1.4c.55.36 2.28 1.66 1.43 3.13-1 1.73-3.6.23-3.6.23l-5.03-2.9c.55.36005 2.29 1.66 1.44 3.14-1 1.73-3.6.23-3.6.23l-11.26-6.5-3.2-6.47-8.79-5.42999v-17l15.79 10.31 9.07-1.7 10.39 6s-2.87 2.97-4.6 1.97l-3.46-2a1.99825 1.99825 0 1 0 -2 3.46l11.25 6.5s2.6 1.5 1.6 3.23c-.87 1.51-2.96.56-3.48.3l2.48 1.43s2.6 1.5 1.6 3.23999z" fill="#ffd285"/><path d="m38.17318 56.07074a2.59935 2.59935 0 0 0 .73645-.79535c1.18653-2.05518-.76562-3.90674-1.96386-4.59863l-11.25879-6.5a.98978.98978 0 0 1 -.44239-.62354 1.02594 1.02594 0 0 1 .07618-.74218 1.06752 1.06752 0 0 1 1.36621-.36573l3.46386 2c2.28907 1.3208 5.24707-1.54638 5.81739-2.13525a1.00042 1.00042 0 0 0 -.21875-1.56152l-10.39258-6a.99858.99858 0 0 0 -.68359-.1167l-8.67774 1.624-14.46289-9.09959a.99965.99965 0 1 0 -1.06445 1.69238l14.79394 9.3086a1.01052 1.01052 0 0 0 .71582.13672l8.69922-1.62842 8.86719 5.11963c-.89356.67871-1.91406 1.20263-2.39356.92773l-3.46386-2a3.0787 3.0787 0 0 0 -4.09864 1.09811 3.027 3.027 0 0 0 -.28418 2.22558 2.95237 2.95237 0 0 0 1.38284 1.8726l11.25879 6.5c.01757.00977 1.70214 1.05078 1.23144 1.86621-.47168.8208-2.2168-.12549-2.23144-.13428l-3.63752-2.1-1.55877-.9-.00037-.00012-.86584-.49988a1.00016 1.00016 0 0 0 -1 1.73243l5.31823 3.07031 3.339 1.92773c.01758.01026 1.707 1.04981 1.23438 1.86768-.47266.8208-2.2168-.12549-2.23145-.13428l-2.59274-1.49698-.00494-.00305-3.63752-2.1-1.55877-.9-.00031-.00012-.8659-.49988a1.00016 1.00016 0 1 0 -1 1.73242l2.425 1.4 3.64045 2.10186c.03314.01941 1.697 1.05274 1.22851 1.86432-.47265.8208-2.2168-.12549-2.23144-.13427l-9.52637-5.5a1.00016 1.00016 0 1 0 -1 1.73242l4.33044 2.50018c.03516.02112 1.70118 1.05206 1.23108 1.86554-.47363.8208-2.21679-.12549-2.23144-.13428l-10.99709-6.34857-3.06153-6.19238a1.0067 1.0067 0 0 0 -.39648-.42285l-7.79395-4.5a1.00016 1.00016 0 0 0 -1 1.73242l7.53223 4.34863 3.06152 6.19238a1.00672 1.00672 0 0 0 .39649.42285l11.25879 6.5a6.30444 6.30444 0 0 0 1.72363.647 4.1046 4.1046 0 0 0 .82422.08738 2.686 2.686 0 0 0 2.75232-2.293l1.89612 1.09473a6.30493 6.30493 0 0 0 1.72363.647 4.1046 4.1046 0 0 0 .82422.0874 2.69026 2.69026 0 0 0 2.76288-2.36163 5.89236 5.89236 0 0 0 1.01056.30988 4.10451 4.10451 0 0 0 .82421.0874 2.65927 2.65927 0 0 0 2.416-1.33252c.99306-1.71967-.21208-3.29419-1.33409-4.16852z"/><path d="m.468 20.84619 14.794 9.3086a1.00311 1.00311 0 0 0 .71582.13671l8.69918-1.62841 2.82324 1.63037a1.00016 1.00016 0 1 0 1-1.73242l-3.14356-1.81495a1.00142 1.00142 0 0 0 -.68359-.1167l-8.67773 1.624-14.46289-9.09958a.99965.99965 0 1 0 -1.06447 1.69238z"/><path d="m45 36-.05469.00049a8.99538 8.99538 0 0 0 -16.04785-4.51856 9.07584 9.07584 0 0 0 -7.39844.72266 1.00023 1.00023 0 0 0 1.00198 1.73141 7.05221 7.05221 0 0 1 6.35254-.32374 1.00347 1.00347 0 0 0 1.251-.374 6.99262 6.99262 0 0 1 12.8916 3.8208.99915.99915 0 0 0 1.167 1.01758 4.94347 4.94347 0 0 1 .83686-.07664 5 5 0 1 1 -1.02539 9.894 1.00083 1.00083 0 0 0 -1.17676.74512 6.97027 6.97027 0 0 1 -2.17578 3.61188 1.00008 1.00008 0 0 0 1.32422 1.499 8.96646 8.96646 0 0 0 2.53906-3.769 7 7 0 1 0 .51465-13.981z"/><path d="m63 6h-13a.99974.99974 0 0 0 -1 1v5h-6v-10h20a1 1 0 0 0 0-2h-21a.99974.99974 0 0 0 -1 1v11h-1a.99974.99974 0 0 0 -1 1v4a.99974.99974 0 0 0 1 1h12a.99974.99974 0 0 0 1-1v-4a.99974.99974 0 0 0 -1-1h-1v-4h12a1 1 0 0 0 0-2zm-12 10h-10v-2h10z"/><path d="m46 30a4.00427 4.00427 0 0 0 4-4c0-1.94141-2.71191-5.062-3.25586-5.668a1.0316 1.0316 0 0 0 -1.48828 0c-.54395.606-3.25586 3.72659-3.25586 5.668a4.00427 4.00427 0 0 0 4 4zm0-7.45117c1.0625 1.33252 2 2.83154 2 3.45117a2 2 0 0 1 -4 0c0-.63721.93945-2.12549 2-3.45117z"/><path d="m22 24a3 3 0 1 0 -3-3 3.00328 3.00328 0 0 0 3 3zm0-4a1 1 0 1 1 -1 1 1.001 1.001 0 0 1 1-1z"/><path d="m32 21a4 4 0 1 0 -4-4 4.00427 4.00427 0 0 0 4 4zm0-6a2 2 0 1 1 -2 2 2.00229 2.00229 0 0 1 2-2z"/><path d="m55 51a4 4 0 1 0 4 4 4.00427 4.00427 0 0 0 -4-4zm0 6a2 2 0 1 1 2-2 2.00229 2.00229 0 0 1 -2 2z"/></g></svg>