<svg id="Capa_1" enable-background="new 0 0 512 512" height="512" viewBox="0 0 512 512" width="512" xmlns="http://www.w3.org/2000/svg"><g><g><g><path d="m57.475 484.664c-1.177 0-2.371-.27-3.491-.839l-30.242-15.353c-3.805-1.932-5.323-6.581-3.392-10.387 1.932-3.804 6.583-5.323 10.387-3.391l30.242 15.353c3.805 1.932 5.323 6.582 3.392 10.387-1.363 2.683-4.079 4.23-6.896 4.23z" fill="#f2fbff"/></g><g><path d="m69.512 460.954c-1.177 0-2.37-.27-3.491-.839l-30.243-15.353c-3.805-1.932-5.323-6.581-3.392-10.387 1.932-3.804 6.581-5.325 10.387-3.391l30.243 15.353c3.805 1.932 5.323 6.581 3.392 10.387-1.363 2.682-4.079 4.23-6.896 4.23z" fill="#f2fbff"/></g><g><path d="m81.549 437.244c-1.177 0-2.371-.27-3.491-.839l-30.243-15.354c-3.805-1.932-5.323-6.582-3.392-10.387 1.932-3.804 6.582-5.324 10.387-3.391l30.243 15.354c3.805 1.932 5.323 6.582 3.392 10.387-1.363 2.683-4.079 4.23-6.896 4.23z" fill="#f2fbff"/></g><g><path d="m93.587 413.534c-1.177 0-2.371-.27-3.491-.839l-30.243-15.354c-3.805-1.932-5.323-6.582-3.392-10.387 1.932-3.804 6.582-5.324 10.387-3.391l30.243 15.354c3.805 1.932 5.323 6.582 3.392 10.387-1.364 2.683-4.079 4.23-6.896 4.23z" fill="#f2fbff"/></g><g><path d="m105.623 389.824c-1.177 0-2.371-.27-3.491-.839l-30.242-15.354c-3.805-1.932-5.323-6.583-3.392-10.387 1.932-3.806 6.584-5.325 10.387-3.391l30.242 15.354c3.805 1.932 5.323 6.582 3.392 10.387-1.363 2.684-4.079 4.23-6.896 4.23z" fill="#f2fbff"/></g><g><path d="m117.661 366.114c-1.177 0-2.371-.27-3.491-.839l-30.243-15.355c-3.805-1.932-5.323-6.583-3.392-10.387 1.932-3.806 6.583-5.324 10.387-3.391l30.242 15.354c3.805 1.932 5.323 6.582 3.392 10.387-1.363 2.684-4.078 4.231-6.895 4.231z" fill="#f2fbff"/></g><g><path d="m129.698 342.403c-1.177 0-2.37-.27-3.491-.839l-30.243-15.353c-3.805-1.932-5.323-6.581-3.392-10.387 1.932-3.804 6.581-5.325 10.387-3.391l30.243 15.353c3.805 1.932 5.323 6.581 3.392 10.387-1.363 2.683-4.079 4.23-6.896 4.23z" fill="#f2fbff"/></g><g><path d="m141.735 318.693c-1.177 0-2.37-.27-3.491-.839l-30.243-15.353c-3.805-1.932-5.323-6.581-3.392-10.387 1.932-3.804 6.58-5.324 10.387-3.391l30.243 15.353c3.805 1.932 5.323 6.582 3.392 10.387-1.363 2.683-4.079 4.23-6.896 4.23z" fill="#f2fbff"/></g><g><path d="m153.772 294.983c-1.177 0-2.371-.27-3.491-.839l-30.242-15.353c-3.805-1.932-5.323-6.581-3.392-10.387 1.932-3.804 6.584-5.324 10.387-3.391l30.242 15.353c3.805 1.932 5.323 6.581 3.392 10.387-1.364 2.682-4.079 4.23-6.896 4.23z" fill="#f2fbff"/></g><g><path d="m165.809 271.272c-1.177 0-2.371-.27-3.491-.839l-30.242-15.353c-3.805-1.932-5.323-6.581-3.392-10.387 1.932-3.804 6.583-5.324 10.387-3.391l30.242 15.353c3.805 1.932 5.323 6.581 3.392 10.387-1.363 2.683-4.079 4.23-6.896 4.23z" fill="#f2fbff"/></g><g><path d="m177.846 247.562c-1.177 0-2.37-.27-3.491-.839l-30.243-15.353c-3.805-1.932-5.323-6.581-3.392-10.387 1.932-3.804 6.581-5.325 10.387-3.391l30.243 15.353c3.805 1.932 5.323 6.581 3.392 10.387-1.363 2.683-4.079 4.23-6.896 4.23z" fill="#f2fbff"/></g><g><path d="m189.883 223.853c-1.177 0-2.371-.27-3.491-.839l-30.243-15.354c-3.805-1.932-5.323-6.582-3.392-10.387 1.932-3.804 6.582-5.324 10.387-3.391l30.243 15.354c3.805 1.932 5.323 6.582 3.392 10.387-1.363 2.683-4.079 4.23-6.896 4.23z" fill="#f2fbff"/></g><g><path d="m201.921 200.143c-1.177 0-2.371-.27-3.491-.839l-30.243-15.354c-3.805-1.932-5.323-6.582-3.392-10.387 1.932-3.804 6.582-5.324 10.387-3.391l30.243 15.354c3.805 1.932 5.323 6.583 3.392 10.387-1.364 2.682-4.079 4.23-6.896 4.23z" fill="#f2fbff"/></g></g><path d="m267.15 63.941-54.113 106.589c-1.42 2.796-4.838 3.913-7.634 2.493l-20.116-10.212c-2.796-1.42-6.214-.304-7.634 2.493l-153.912 303.168c-17.388.712-29.118-17.549-21.24-33.066l188.808-371.906c8.485-16.713 28.912-23.384 45.626-14.899z" fill="#dff6fd"/><path d="m397.261 416.974 48.422-7.565 31.965-33.012c-36.911-100.306-84.026-194.239-142.025-281.371l-44.83 6.312-35.557 34.264c36.232 99.398 83.204 193.375 142.025 281.372z" fill="#7ca1b1"/><path d="m335.623 95.026-15.583 2.194-10.094 10.767c52.61 81.145 95.959 168.076 130.572 260.465 1.693 4.519-.307 9.589-4.615 11.764l-47.171 23.81c2.818 4.329 5.656 8.647 8.53 12.947l48.423-7.564 31.965-33.012c-36.913-100.306-84.027-194.238-142.027-281.371z" fill="#678d98"/><path d="m255.236 135.603-2.537-20.148-13.349-11.325-28.751 14.513c-3.117 1.573-3.846 5.67-1.5 8.255 7.125 7.856 23.115 20.325 46.137 8.705z" fill="#ae6c6c"/><path d="m228.91 51.041 54.315-27.416c7.2-3.634 15.982-.744 19.616 6.456l7.105 77.906-54.71 27.616-32.782-64.945c-3.634-7.2-.744-15.983 6.456-19.617z" fill="#f2fbff"/><path d="m335.623 95.026-21.432-11.672 5.546-19.801 28.751-14.512c3.105-1.567 6.84.255 7.527 3.665 2.093 10.39 2.652 30.688-20.392 42.32z" fill="#ae6c6c"/><path d="m309.946 107.987 25.677-12.961-32.782-64.946c-3.634-7.2-12.417-10.09-19.616-6.456l-14.19 7.163z" fill="#dff6fd"/><path d="m397.261 416.974 53.147-26.826 60.022 51.196c3.634 7.2.744 15.982-6.456 19.616l-54.315 27.416c-7.2 3.634-15.982.744-19.616-6.456z" fill="#f2fbff"/><path d="m510.43 441.343-32.782-64.945-27.24 13.75 25.842 51.195c3.634 7.2.744 15.982-6.456 19.616l-40.111 20.246.36.714c3.634 7.2 12.417 10.09 19.616 6.456l54.315-27.416c7.2-3.634 10.09-12.417 6.456-19.616z" fill="#dff6fd"/><path d="m399.797 330.307c-2.835 0-5.563-1.565-6.917-4.273l-55.228-110.457c-1.908-3.817-.362-8.458 3.455-10.366 3.817-1.907 8.457-.361 10.366 3.455l55.228 110.457c1.908 3.817.362 8.458-3.455 10.366-1.109.554-2.288.818-3.449.818z" fill="#678d98"/><g fill="#dff6fd"><circle cx="463.916" cy="449.107" r="7.726"/><circle cx="270.092" cy="65.021" r="7.726"/></g></g></svg>