<svg id="Layer_1" enable-background="new 0 0 512 512" height="512" viewBox="0 0 512 512" width="512" xmlns="http://www.w3.org/2000/svg"><g clip-rule="evenodd" fill-rule="evenodd"><g fill="#636c77"><path d="m466.833 12.501c3.866 0 7 3.134 7 7s-3.134 7-7 7h-23.685c-3.866 0-7-3.134-7-7s3.134-7 7-7zm18.416 65.624c3.866 0 7 3.134 7 7s-3.134 7-7 7h-42.102c-3.866 0-7-3.134-7-7s3.134-7 7-7zm0-21.875c3.866 0 7 3.134 7 7s-3.134 7-7 7h-42.102c-3.866 0-7-3.134-7-7s3.134-7 7-7zm0-21.874c3.866 0 7 3.134 7 7s-3.134 7-7 7h-42.102c-3.866 0-7-3.134-7-7s3.134-7 7-7zm0 65.624c3.866 0 7 3.134 7 7s-3.134 7-7 7h-42.102c-3.866 0-7-3.134-7-7s3.134-7 7-7z"/><path d="m466.833 12.5h12.833c10.922 0 19.834 8.911 19.834 19.833v149.333c0 5.462-2.229 10.422-5.821 14.013-3.591 3.591-8.551 5.821-14.013 5.821-5.461 0-10.422-2.229-14.013-5.821-3.591-3.591-5.82-8.552-5.82-14.013v-162.166c0-3.866 3.134-7 7-7z"/></g><g><path d="m383.511 19.868c.267-.462.766-.475 1.406-.116 4.212 2.364 16.409 17.754 4.779 37.899l-60.782 105.277c.915 7.159-.425 14.674-4.321 21.424l-.012.02.012.007c-4.724 8.183-12.317 13.676-20.774 15.942-8.411 2.253-17.693 1.301-25.862-3.387l-.219-.127c-8.127-4.742-13.579-12.296-15.829-20.691-2.254-8.411-1.301-17.693 3.386-25.862l.057-.1-.012-.007c4.724-8.183 12.318-13.676 20.774-15.942 8.439-2.261 17.753-1.296 25.942 3.431l.02.012.007-.012c.868.501 1.705 1.035 2.511 1.598zm-68.993 142.152c-1.341-5.007-4.592-9.502-9.434-12.297l.007-.012c-4.831-2.782-10.35-3.342-15.367-1.998-5.007 1.341-9.502 4.592-12.297 9.434l-.012-.007c-2.782 4.832-3.342 10.35-1.998 15.367 1.345 5.018 4.586 9.513 9.406 12.296 4.838 2.793 10.365 3.357 15.388 2.011 5.007-1.341 9.502-4.592 12.297-9.434l.012.007c2.782-4.832 3.342-10.35 1.998-15.367z" fill="#cad0d7"/><path d="m377.403 149.722c-4.842 2.796-8.093 7.29-9.434 12.297-1.344 5.017-.784 10.535 1.998 15.367l.012-.007c2.796 4.842 7.29 8.093 12.297 9.434 5.024 1.346 10.551.782 15.387-2.01 4.821-2.784 8.063-7.279 9.407-12.297 1.344-5.017.784-10.535-1.998-15.367l-.012.007c-2.796-4.842-7.29-8.093-12.297-9.434-5.017-1.344-10.535-.784-15.367 1.998zm-78.428-129.854 68.917 119.366c.807-.563 1.644-1.097 2.511-1.598l.007.012.02-.012c8.188-4.727 17.503-5.693 25.942-3.431 8.457 2.266 16.049 7.759 20.774 15.942l-.012.007.057.1c4.688 8.169 5.64 17.45 3.386 25.862-2.25 8.396-7.703 15.95-15.829 20.691l-.22.127c-8.169 4.688-17.451 5.64-25.862 3.387-8.456-2.266-16.049-7.759-20.774-15.942l.012-.007-.012-.02c-3.897-6.75-5.237-14.265-4.321-21.424l-60.781-105.276c-11.631-20.145.567-35.535 4.779-37.899.64-.36 1.139-.347 1.406.115z" fill="#e4e8eb"/></g><g><g><path d="m268.784 446.423c0 70.768-256.284 70.768-256.284 0 0-70.767 57.378-128.137 128.147-128.137 70.768 0 128.137 57.371 128.137 128.137z" fill="#636c77"/><path d="m203.92 319.649-42.986 1.196v106.292c18.256 5.817 25.888 5.855 42.986-1.196z" fill="#f5b945"/><path d="m141.206 295.172c24.395-.266 30.684-16.179 56.938-21.728 8.195 9.503 16.451 41.768 5.776 57.786-20.855 15.273-36.054 24.208-62.714 24.139-26.66.07-41.859-8.865-62.714-24.139-10.675-16.018-2.419-48.283 5.776-57.786 26.255 5.549 32.544 21.462 56.938 21.728z" fill="#fdcd56"/><path d="m219.745 224.313h-24.039c.279 2.691.425 1.876.425 8.186s-1.827 19.278-5.15 27.952h28.763c9.869 0 17.949-8.131 17.949-18.069.001-9.938-8.076-18.069-17.948-18.069zm-158.206 0h24.039c-.28 2.691-.426 1.876-.426 8.186s1.826 19.278 5.15 27.952h-28.763c-9.869 0-17.949-8.131-17.949-18.069s8.077-18.069 17.949-18.069z" fill="#d5a889"/><ellipse cx="140.642" cy="232.685" fill="#efc7a4" rx="67.699" ry="77.185"/><g fill="#e4e8eb"><path d="m174.043 299.833c-9.856 6.386-21.254 10.037-33.401 10.037s-23.545-3.651-33.401-10.037v-23.848c0-10.087 8.227-18.313 18.313-18.313h30.176c10.086 0 18.313 8.226 18.313 18.313z"/><path d="m65.092 234.254c7.108.453 10.506.099 10.251-4.768-1.508-28.775 16.903-5.166 24.819-39.197 6.141-26.404-30.809-34.792-45.002-4.528-5.141 10.96-7.277 47.396 9.932 48.493zm151.1 0c-7.108.453-10.506.099-10.252-4.768 1.508-28.775-16.903-5.166-24.818-39.197-6.141-26.404 30.809-34.792 45.002-4.528 5.141 10.96 7.278 47.396-9.932 48.493z"/></g></g><g fill="#937661"><path d="m167.061 226.121c4.72 0 8.546 3.827 8.546 8.546 0 4.72-3.826 8.546-8.546 8.546s-8.546-3.826-8.546-8.546c0-4.719 3.827-8.546 8.546-8.546zm-54.274 0c4.72 0 8.546 3.827 8.546 8.546 0 4.72-3.826 8.546-8.546 8.546s-8.546-3.826-8.546-8.546c0-4.719 3.826-8.546 8.546-8.546z"/><path d="m125.038 286.656c-3.095-2.295-3.744-6.666-1.449-9.761s6.666-3.744 9.761-1.449c1.421 1.051 2.759 1.813 4.028 2.284 1.079.401 2.135.593 3.182.578h.179c1.044.012 2.095-.18 3.167-.578 1.269-.471 2.607-1.233 4.028-2.284 3.095-2.295 7.466-1.646 9.761 1.449s1.646 7.466-1.449 9.761c-2.468 1.824-4.947 3.205-7.473 4.143-2.691.999-5.389 1.484-8.131 1.454-2.742.03-5.44-.455-8.131-1.454-2.527-.938-5.005-2.319-7.473-4.143z"/></g></g></g></svg>