<?xml version="1.0" encoding="iso-8859-1"?>
<!-- Generator: Adobe Illustrator 19.0.0, SVG Export Plug-In . SVG Version: 6.00 Build 0)  -->
<svg version="1.1" id="Capa_1" xmlns="http://www.w3.org/2000/svg" xmlns:xlink="http://www.w3.org/1999/xlink" x="0px" y="0px"
	 viewBox="0 0 512 512" style="enable-background:new 0 0 512 512;" xml:space="preserve">
<path style="fill:#C5C9F7;" d="M242.701,347.8l-43.2,47.699L165,319.9L66.301,103.599C54.901,80.498,59.4,53.5,76.2,35.799
	c3.301-3.6,8.401-5.4,13.5-4.499c4.801,0.599,9,3.9,11.1,8.399L165,179.2L242.701,347.8z"/>
<polygon style="fill:#A8AFF1;" points="242.701,347.8 199.501,395.499 165,319.9 165,179.2 "/>
<path style="fill:#E1E4FB;" d="M263.699,103.599L165,319.9l-34.501,75.599l-43.2-47.699L165,179.2l64.2-139.501
	c2.1-4.499,6.299-7.8,11.1-8.399c5.099-0.901,10.199,0.899,13.5,4.499C270.601,53.5,275.099,80.499,263.699,103.599z"/>
<g>
	<path style="fill:#00EA7D;" d="M437,61h-60c-8.291,0-15-6.709-15-15s6.709-15,15-15h60c8.291,0,15,6.709,15,15S445.291,61,437,61z"
		/>
	<path style="fill:#00EA7D;" d="M437,121h-60c-8.291,0-15-6.709-15-15s6.709-15,15-15h60c8.291,0,15,6.709,15,15
		S445.291,121,437,121z"/>
	<path style="fill:#00EA7D;" d="M437,181h-60c-8.291,0-15-6.709-15-15s6.709-15,15-15h60c8.291,0,15,6.709,15,15
		S445.291,181,437,181z"/>
	<path style="fill:#00EA7D;" d="M437,241h-60c-8.291,0-15-6.709-15-15s6.709-15,15-15h60c8.291,0,15,6.709,15,15
		S445.291,241,437,241z"/>
	<path style="fill:#00EA7D;" d="M437,301h-60c-8.291,0-15-6.709-15-15s6.709-15,15-15h60c8.291,0,15,6.709,15,15
		S445.291,301,437,301z"/>
	<path style="fill:#00EA7D;" d="M437,361h-60c-8.291,0-15-6.709-15-15s6.709-15,15-15h60c8.291,0,15,6.709,15,15
		S445.291,361,437,361z"/>
	<path style="fill:#00EA7D;" d="M437,421h-60c-8.291,0-15-6.709-15-15s6.709-15,15-15h60c8.291,0,15,6.709,15,15
		S445.291,421,437,421z"/>
	<path style="fill:#00EA7D;" d="M437,481h-60c-8.291,0-15-6.709-15-15s6.709-15,15-15h60c8.291,0,15,6.709,15,15
		S445.291,481,437,481z"/>
</g>
<path style="fill:#C5C9F7;" d="M263.699,103.599L165,319.9V179.2l64.2-139.501c2.1-4.499,6.299-7.8,11.1-8.399
	c5.099-0.901,10.199,0.899,13.5,4.499C270.601,53.5,275.099,80.499,263.699,103.599z"/>
<path style="fill:#00CB7E;" d="M467,481h-45V31h45c24.853,0,45,20.147,45,45v360C512,460.853,491.853,481,467,481z"/>
<path style="fill:#00B3B8;" d="M75,481c-41.353,0-75-33.647-75-75s33.647-75,75-75s75,33.647,75,75S116.353,481,75,481z M75,361
	c-24.814,0-45,20.186-45,45s20.186,45,45,45s45-20.186,45-45S99.814,361,75,361z"/>
<path style="fill:#00A2AF;" d="M255,481c-41.353,0-75-33.647-75-75s33.647-75,75-75s76,33.647,76,75S296.353,481,255,481z M255,361
	c-24.814,0-45,20.186-45,45s20.186,45,45,45s45-20.186,45-45S279.814,361,255,361z"/>
<g>
</g>
<g>
</g>
<g>
</g>
<g>
</g>
<g>
</g>
<g>
</g>
<g>
</g>
<g>
</g>
<g>
</g>
<g>
</g>
<g>
</g>
<g>
</g>
<g>
</g>
<g>
</g>
<g>
</g>
</svg>
