<svg id="Layer_1" enable-background="new 0 0 128 128" viewBox="0 0 128 128" xmlns="http://www.w3.org/2000/svg"><g><path d="m32 80c-1.7 0-3 1.3-3 3v41c0 1.7 1.3 3 3 3s3-1.3 3-3v-41c0-1.7-1.3-3-3-3z"/><path d="m32 27c7.2 0 13-5.8 13-13s-5.8-13-13-13-13 5.8-13 13 5.8 13 13 13zm0-20c3.9 0 7 3.1 7 7s-3.1 7-7 7-7-3.1-7-7 3.1-7 7-7z"/><path d="m20 87c-1.7 0-3 1.3-3 3v34c0 1.7 1.3 3 3 3s3-1.3 3-3v-34c0-1.7-1.3-3-3-3z"/><path d="m114 1h-59c-1.7 0-3 1.3-3 3s1.3 3 3 3h56v114h-64v-44.5c3.5-1.2 6-4.6 6-8.5v-24c0-7.2-5.8-13-13-13h-16c-7.2 0-13 5.8-13 13v30c0 1.7 1.3 3 3 3s3-1.3 3-3v-30c0-3.9 3.1-7 7-7h16c3.9 0 7 3.1 7 7v24c0 1.7-1.3 3-3 3s-3 1.3-3 3v50c0 1.7 1.3 3 3 3h70c1.7 0 3-1.3 3-3v-120c0-1.7-1.3-3-3-3z"/></g><path d="m102 67h-5.9c-1.5 0-2.8-1-3.1-2.4-.3-1.9 1.1-3.6 3-3.6h6c1.7 0 3 1.3 3 3 0 1.7-1.3 3-3 3z"/></svg>