<svg id="Layer_1" enable-background="new 0 0 480 480" height="512" viewBox="0 0 480 480" width="512" xmlns="http://www.w3.org/2000/svg"><path d="m472 326.585v121.35c0 13.25-10.75 24-24 24h-416c-13.25 0-24-10.75-24-24v-64c0 13.25 10.75 24 24 24h358.65z" fill="#e84857"/><path d="m448 43.285h-416c-13.25 0-24 10.75-24 24v346.65c0 13.25 10.75 24 24 24h358.65l81.35-81.35v-289.3c0-13.25-10.75-24-24-24z" fill="#ff6d7a"/><path d="m472 67.285v126.71c-120.257 113.418-288.99 150.873-464 123.29v-250c0-13.25 10.75-24 24-24h416c13.25 0 24 10.75 24 24z" fill="#ff8c95"/><path d="m426.81 129.385v227.2h-12.16c-13.25 0-24 10.75-24 24v12.67h-337.46v-263.87z" fill="#ffebd2"/><path d="m426.81 129.385v102.88c-105.28 79.91-237.09 100.57-373.62 90.28v-193.16z" fill="#fff3e4"/><path d="m472 356.585-81.35 81.35v-57.35c0-13.25 10.75-24 24-24z" fill="#ffd9ad"/><path d="m339.58 30.965c-4.06-30.71 44.9-30.71 40.84 0l-5.28 39.95c-2.34 17.66-27.94 17.66-30.28 0z" fill="#cbe3fa"/><path d="m363.49 83.775c-7.96 1.74-17.26-2.55-18.63-12.86l-5.28-39.95c-3.37-25.48 29.76-29.82 38.82-13.02-11.36-.19-22.872 7.48-20.82 23.02 5.655 42.83 5.289 40.835 5.91 42.81z" fill="#eef7ff"/><path d="m219.58 30.965c-4.06-30.71 44.9-30.71 40.84 0l-5.28 39.95c-2.34 17.66-27.94 17.66-30.28 0z" fill="#cbe3fa"/><path d="m243.49 83.775c-7.96 1.74-17.26-2.55-18.63-12.86l-5.28-39.95c-3.37-25.48 29.76-29.82 38.82-13.02-11.36-.19-22.872 7.48-20.82 23.02 5.655 42.83 5.289 40.835 5.91 42.81z" fill="#eef7ff"/><path d="m99.58 30.965c-4.06-30.71 44.9-30.71 40.84 0l-5.28 39.95c-2.34 17.66-27.94 17.66-30.28 0z" fill="#cbe3fa"/><path d="m123.49 83.775c-7.96 1.74-17.26-2.55-18.63-12.86l-5.28-39.95c-3.37-25.48 29.76-29.82 38.82-13.02-11.36-.19-22.872 7.48-20.82 23.02 5.655 42.83 5.289 40.835 5.91 42.81z" fill="#eef7ff"/><g><path d="m180 51.285h34.198l2.735 20.681c3.559 26.914 42.574 26.913 46.133 0l5.283-39.949c5.601-42.348-62.367-42.856-56.699 0l.432 3.268h-32.082c-4.418 0-8 3.582-8 8s3.582 8 8 8zm72.488-21.366-5.283 39.948c-1.115 8.428-13.295 8.428-14.41 0l-5.283-39.949c-2.512-18.993 27.447-18.683 24.976.001z"/><path d="m448 35.285h-60.083l.432-3.268c5.601-42.348-62.367-42.856-56.699 0l.432 3.268h-35.961c-4.418 0-8 3.582-8 8s3.582 8 8 8h38.077l2.735 20.681c3.559 26.914 42.574 26.913 46.133 0l2.735-20.681h62.199c8.822 0 16 7.178 16 16v281.3h-49.35c-17.645 0-32 14.355-32 32v18.721c0 10.584 16 10.584 16 0v-18.721c0-8.822 7.178-16 16-16h38.036l-65.35 65.35h-355.336c-8.822 0-16-7.178-16-16v-346.65c0-8.822 7.178-16 16-16h62.198l2.735 20.681c3.559 26.914 42.574 26.913 46.133 0l5.283-39.949c5.601-42.348-62.367-42.856-56.699 0l.432 3.268h-60.082c-17.645 0-32 14.355-32 32v380.65c0 17.645 14.355 32 32 32h416c17.645 0 32-14.355 32-32v-380.65c0-17.645-14.355-32-32-32zm-95.205 34.583-5.283-39.949c-2.472-18.692 27.496-19.048 24.977 0l-5.283 39.948c-1.116 8.428-13.296 8.429-14.411.001zm-220.307-39.949-5.283 39.948c-1.115 8.428-13.295 8.428-14.41 0l-5.283-39.949c-2.464-18.625 27.495-19.042 24.976.001zm315.512 434.016h-416c-8.822 0-16-7.178-16-16v-6.305c4.711 2.732 10.174 4.305 16 4.305h358.65c2.122 0 4.156-.843 5.657-2.343l67.693-67.693v72.036c0 8.822-7.178 16-16 16z"/><path d="m434.807 317.58v-188.193c0-4.418-3.582-8-8-8h-373.614c-4.418 0-8 3.582-8 8v263.871c0 4.418 3.582 8 8 8h299.666c10.585 0 10.585-16 0-16h-291.666v-247.871h357.613v180.193c.001 10.584 16.001 10.584 16.001 0z"/><path d="m136.899 306.995v-38.73l26.188-42.76c5.527-9.025-8.119-17.383-13.645-8.356l-20.543 33.543-20.542-33.543c-5.527-9.027-19.172-.67-13.645 8.356l26.187 42.76v38.73c0 10.584 16 10.584 16 0z"/><path d="m225.374 229.327c10.585 0 10.585-16 0-16h-44.187c-4.418 0-8 3.582-8 8v85.668c0 4.418 3.582 8 8 8h44.187c10.585 0 10.585-16 0-16h-36.187v-26.834h14.093c10.585 0 10.585-16 0-16h-14.093v-26.834z"/><path d="m352.859 213.327h-18.382c-4.418 0-8 3.582-8 8v85.668c0 10.584 16 10.584 16 0v-26.06h6.388l23.205 30.868c6.22 8.273 19.213-1.07 12.789-9.614l-18.004-23.949c30.738-13.029 24.737-64.913-13.996-64.913zm0 51.608h-10.382v-35.608h10.382c23.243 0 23.837 35.608 0 35.608z"/><path d="m287.546 218.858c-2.385-7.354-12.834-7.354-15.219 0l-27.792 85.669c-3.266 10.067 11.955 15.006 15.219 4.938l3.813-11.755h32.738l3.813 11.755c3.265 10.068 18.485 5.131 15.219-4.938zm-18.788 62.851 11.178-34.458 11.178 34.458z"/></g></svg>